<svg width="147" height="40" viewBox="0 0 147 40" fill="none" xmlns="http://www.w3.org/2000/svg">
<g clip-path="url(#clip0_3458_2500)">
<path d="M17.1717 24.7147C17.1717 21.7752 16.2688 19.4802 14.4632 17.8297C12.6574 16.1794 10.0663 15.3542 6.68988 15.3542H0V34.2648H1.49999C1.85944 34.2723 2.21662 34.2062 2.54951 34.0705C2.8824 33.9349 3.18396 33.7326 3.43558 33.4761C3.69022 33.2268 3.89146 32.9285 4.02707 32.5992C4.16268 32.2698 4.22983 31.9164 4.22444 31.5603C4.22448 31.5543 4.22522 31.5486 4.22522 31.5426C4.22522 31.5366 4.22449 31.5309 4.22444 31.5249V30.2973H4.22522V19.0336H6.58154C8.73013 19.0336 10.3236 19.5341 11.362 20.5352C12.4001 21.5361 12.9193 22.9654 12.9194 24.823C12.9194 26.6809 12.4003 28.0967 11.362 29.0705C11.3336 29.0972 11.3012 29.1196 11.2721 29.1455C10.2383 30.0668 8.78309 30.5287 6.90658 30.5313H4.71102V30.9876C4.76889 31.8599 5.15919 32.6768 5.80165 33.2705C6.44411 33.8641 7.28989 34.1893 8.16502 34.1791C8.27547 34.1791 8.38342 34.1734 8.48999 34.1648C8.5401 34.1607 8.58881 34.1535 8.63805 34.1475L8.63914 34.1473C11.1773 33.8615 13.1412 33.0439 14.5309 31.6947C16.2914 29.9815 17.1716 27.6548 17.1717 24.7147Z" fill="#212322"/>
<path d="M32.4217 17.8569C32.0208 17.4649 31.7686 16.946 31.7084 16.3889C31.6482 15.8318 31.7837 15.2711 32.0916 14.8027C32.3995 14.3343 32.8608 13.9873 33.3965 13.8211C33.9323 13.6549 34.5092 13.6797 35.0286 13.8914C35.5481 14.103 35.9777 14.4884 36.2442 14.9815C36.5106 15.4746 36.5972 16.0449 36.4893 16.5947C36.3813 17.1446 36.0854 17.6399 35.6522 17.996C35.219 18.352 34.6755 18.5467 34.1145 18.5467C33.8001 18.5533 33.4877 18.4955 33.1966 18.3769C32.9054 18.2582 32.6417 18.0813 32.4217 17.8569Z" fill="#212322"/>
<path d="M36.1458 19.7101H32.0831V34.2648H36.1458V19.7101Z" fill="#212322"/>
<path d="M41.8118 34.2649H37.7491V14.1912H41.8118V34.2649Z" fill="#212322"/>
<path d="M45.9572 40C44.5306 40 43.1854 39.4229 41.9216 38.2686L43.7634 35.2658C44.4493 35.9327 45.1535 36.2663 45.8759 36.2667C46.0716 36.2619 46.2631 36.2087 46.4332 36.1119C46.6034 36.0152 46.7469 35.8779 46.851 35.7122C47.1108 35.3744 47.2535 34.9613 47.2572 34.5353C47.2572 34.1206 45.3794 29.1789 41.6237 19.7101H45.9572L49.5053 28.773L53.0533 19.7101H57.3868L50.6157 36.8619C50.2551 37.808 49.6061 38.6172 48.7604 39.1751C47.929 39.7226 46.953 40.0098 45.9572 40Z" fill="#212322"/>
<path d="M62.0595 19.1283C61.8619 19.2869 61.704 19.4892 61.5982 19.7193C61.4925 19.9494 61.4418 20.2009 61.4501 20.4539C61.4469 20.7189 61.5142 20.98 61.645 21.2105C61.7759 21.441 61.9656 21.6327 62.1949 21.766C62.6914 22.0907 63.838 22.4739 65.6346 22.9158C67.4311 23.3581 68.826 24.0209 69.8192 24.9044C70.8121 25.7882 71.3087 27.0777 71.3089 28.773C71.3089 30.4684 70.6724 31.8436 69.3994 32.8985C68.1264 33.9537 66.4517 34.4813 64.3752 34.4813C61.3777 34.4813 58.6783 33.372 56.277 31.1536L58.7958 28.0696C60.836 29.855 62.7229 30.7478 64.4565 30.7478C65.2327 30.7478 65.8421 30.5809 66.2847 30.2473C66.4976 30.0931 66.6694 29.8892 66.7851 29.6534C66.9007 29.4176 66.9568 29.157 66.9483 28.8946C66.955 28.628 66.8939 28.3642 66.7707 28.1276C66.6475 27.8911 66.4663 27.6896 66.244 27.542C65.7743 27.2085 64.8444 26.8703 63.4543 26.5275C61.2512 26.0046 59.6397 25.3238 58.6198 24.485C57.5995 23.6463 57.0894 22.3297 57.0895 20.5352C57.0895 18.7407 57.735 17.3564 59.0261 16.3824C60.3167 15.4085 61.9282 14.9216 63.8606 14.9216C65.1519 14.9262 66.4334 15.1456 67.6525 15.5708C68.8595 15.9721 69.9803 16.5961 70.9568 17.4104L68.8171 20.4946C67.1738 19.2501 65.4765 18.6278 63.7252 18.6278C63.021 18.6278 62.4658 18.7947 62.0595 19.1283Z" fill="#212322"/>
<path d="M86.7533 26.9874C86.7533 29.0975 86.0221 30.874 84.5595 32.317C83.0969 33.7602 81.2597 34.4816 79.0478 34.4813C76.8358 34.4813 74.9986 33.7599 73.5361 32.317C72.0735 30.8742 71.3423 29.0977 71.3423 26.9874C71.3215 25.9941 71.5055 25.0072 71.8829 24.088C72.2603 23.1689 72.823 22.3371 73.5361 21.6444C74.9987 20.1928 76.836 19.4669 79.0478 19.4666C81.2594 19.4666 83.0966 20.1925 84.5595 21.6444C85.2725 22.3371 85.8353 23.1688 86.2127 24.088C86.5901 25.0072 86.7742 25.9941 86.7533 26.9874ZM75.432 26.9874C75.432 28.1777 75.7706 29.1471 76.4477 29.8957C76.7814 30.2502 77.1843 30.5327 77.6315 30.7258C78.0786 30.9189 78.5607 31.0185 79.0478 31.0185C79.535 31.0185 80.017 30.9189 80.4642 30.7258C80.9113 30.5327 81.3142 30.2502 81.648 29.8957C82.325 29.1475 82.6635 28.178 82.6636 26.9874C82.6636 25.7971 82.3251 24.8232 81.648 24.0657C81.3165 23.7074 80.9143 23.4215 80.4669 23.2259C80.0194 23.0303 79.5362 22.9294 79.0478 22.9294C78.5594 22.9294 78.0762 23.0303 77.6288 23.2259C77.1813 23.4215 76.7792 23.7074 76.4477 24.0657C75.7705 24.823 75.432 25.7969 75.432 26.9874Z" fill="#212322"/>
<path d="M94.5558 30.8831C95.9101 30.8831 97.129 30.2068 98.2123 28.8541L100.623 31.5593C98.7447 33.5072 96.7134 34.4812 94.5288 34.4813C92.3438 34.4813 90.4976 33.7914 88.99 32.4116C87.4822 31.0318 86.7284 29.2282 86.7285 27.0009C86.7285 24.7737 87.4914 22.9611 89.0172 21.5631C90.4866 20.1872 92.4337 19.4354 94.4476 19.4665C95.5404 19.4757 96.6211 19.6962 97.63 20.1159C98.7004 20.5461 99.6656 21.2011 100.46 22.0366L98.3478 24.7961C97.8803 24.2388 97.2922 23.7947 96.6279 23.4974C95.9961 23.2011 95.3079 23.0443 94.61 23.0376C93.5937 23.019 92.6093 23.392 91.861 24.0792C91.0933 24.7737 90.7096 25.7385 90.7099 26.9738C90.7099 28.2094 91.0936 29.1698 91.861 29.855C92.5955 30.528 93.5593 30.8956 94.5558 30.8831Z" fill="#212322"/>
<path d="M101.449 17.8568C101.048 17.4649 100.796 16.946 100.736 16.389C100.675 15.832 100.811 15.2713 101.119 14.803C101.427 14.3347 101.888 13.9878 102.423 13.8216C102.959 13.6554 103.536 13.6802 104.055 13.8919C104.575 14.1035 105.004 14.4888 105.271 14.9819C105.537 15.4749 105.624 16.0451 105.516 16.5949C105.408 17.1447 105.112 17.64 104.679 17.996C104.246 18.352 103.702 18.5467 103.141 18.5467C102.827 18.5533 102.515 18.4955 102.223 18.3768C101.932 18.2582 101.669 18.0812 101.449 17.8568ZM105.173 34.2648H101.11V19.71H105.173V34.2648Z" fill="#212322"/>
<path d="M124.72 34.2649H120.657V14.1912H124.72V34.2649Z" fill="#212322"/>
<path d="M117.496 20.7921C116.376 19.9087 114.932 19.4669 113.162 19.4665C110.81 19.4338 108.509 20.1648 106.608 21.5497L108.423 24.1739C109.028 23.7255 109.7 23.3741 110.413 23.1322C111.129 22.8657 111.885 22.7239 112.648 22.7129C114.291 22.7129 115.112 23.4884 115.113 25.0395V25.1208H112.079C110.201 25.1208 108.721 25.4905 107.637 26.23C106.554 26.9696 106.012 28.0832 106.012 29.571C106.012 31.0589 106.536 32.2492 107.583 33.1421C108.63 34.0348 109.926 34.4812 111.47 34.4813C112.997 34.4813 114.281 33.8368 115.322 32.548C115.333 32.5338 115.345 32.5206 115.356 32.5063V32.6611C115.516 33.1324 115.821 33.5412 116.227 33.8292C116.633 34.1172 117.12 34.2697 117.618 34.2648H119.175V24.9854C119.175 23.074 118.616 21.6762 117.496 20.7921ZM115.085 28.7187C115.097 29.0582 115.029 29.3957 114.885 29.7036C114.742 30.0115 114.527 30.2813 114.26 30.4908C113.721 30.9286 113.045 31.1631 112.35 31.1535C111.628 31.1535 111.073 31.0138 110.684 30.7342C110.494 30.5984 110.341 30.417 110.239 30.2066C110.137 29.9963 110.09 29.7637 110.102 29.5304C110.102 28.5205 110.915 28.0155 112.54 28.0154H115.085L115.085 28.7187Z" fill="#212322"/>
<path d="M28.9105 20.7921C27.7908 19.9087 26.3463 19.4669 24.5771 19.4665C22.2241 19.4338 19.924 20.1648 18.0226 21.5497L19.8372 24.1739C20.4426 23.7255 21.1143 23.3741 21.828 23.1322C22.5433 22.8657 23.2991 22.7239 24.0624 22.7129C25.7053 22.7129 26.5269 23.4884 26.5271 25.0395V25.1208H23.4936C21.6155 25.1208 20.1349 25.4905 19.0518 26.23C17.9684 26.9696 17.4267 28.0832 17.4268 29.571C17.4268 31.0589 17.9504 32.2492 18.9977 33.1421C20.0446 34.0348 21.3401 34.4812 22.8842 34.4813C24.4218 34.4813 25.7131 33.8281 26.758 32.5218C26.7626 32.5397 26.7659 32.5583 26.7709 32.576C26.9175 33.0675 27.2202 33.4981 27.6333 33.8027C28.0464 34.1074 28.5474 34.2695 29.0608 34.2648H30.5898V30.044V24.9854C30.5898 23.074 30.03 21.6762 28.9105 20.7921ZM26.5 28.7187C26.5118 29.0582 26.4431 29.3957 26.2995 29.7036C26.156 30.0116 25.9416 30.2813 25.6739 30.4908C25.135 30.9286 24.4591 31.1632 23.7645 31.1535C23.0421 31.1535 22.4869 31.0138 22.0989 30.7342C21.9084 30.5985 21.7553 30.417 21.6535 30.2067C21.5518 29.9963 21.5046 29.7637 21.5165 29.5303C21.5165 28.5205 22.329 28.0155 23.9541 28.0154H26.5V28.7187ZM26.6774 31.884C26.6773 31.9936 26.6843 32.1031 26.6981 32.2118C26.6842 32.1031 26.6773 31.9936 26.6774 31.884H26.6774Z" fill="#212322"/>
<path d="M136.922 19.4665C142.304 19.4665 146.667 15.1088 146.667 9.73326C146.667 4.35773 142.304 0 136.922 0C131.54 0 127.178 4.35773 127.178 9.73326C127.178 15.1088 131.54 19.4665 136.922 19.4665Z" fill="#005F61"/>
<path d="M130.691 10.0685H134.316L132.56 18.8712H128.935L130.691 10.0685Z" fill="#FFA400"/>
<path d="M141.914 3.73108V7.71602C141.349 7.43605 140.735 7.26874 140.106 7.22342C139.946 7.21045 139.783 7.20346 139.616 7.20346C138.211 7.20346 137.044 7.665 136.115 8.58806C135.904 8.79677 135.713 9.02398 135.542 9.26695C134.991 10.0638 134.703 11.0137 134.721 11.9824C134.708 12.612 134.824 13.2377 135.064 13.8201C135.304 14.4026 135.662 14.9292 136.115 15.367C136.426 15.6761 136.779 15.9402 137.164 16.1518C137.841 16.5158 138.594 16.716 139.362 16.7365C139.446 16.7399 139.531 16.7417 139.616 16.7418C140.536 16.7606 141.442 16.5233 142.235 16.0566C142.265 16.0922 142.293 16.1286 142.327 16.1624C142.465 16.303 142.63 16.4144 142.812 16.49C142.994 16.5656 143.19 16.6039 143.387 16.6026C143.396 16.6027 143.404 16.6049 143.413 16.6049C143.421 16.6049 143.429 16.6027 143.438 16.6026H144.519V3.73108H141.914ZM141.268 13.8285C140.971 14.1657 140.573 14.3974 140.133 14.4885C139.963 14.5242 139.79 14.5421 139.616 14.5418C139.306 14.5511 138.997 14.4921 138.711 14.3688C138.426 14.2456 138.171 14.0611 137.965 13.8285C137.521 13.3182 137.29 12.6576 137.319 11.9824C137.291 11.304 137.522 10.6403 137.965 10.1251C138.195 9.86333 138.486 9.6629 138.813 9.54195C139.07 9.44838 139.342 9.40148 139.616 9.40344C139.928 9.39475 140.237 9.45493 140.523 9.57969C140.808 9.70445 141.063 9.8907 141.268 10.1251C141.711 10.6403 141.941 11.304 141.913 11.9824C141.942 12.6576 141.711 13.3182 141.268 13.8285Z" fill="#FFA400"/>
<path d="M131.604 8.4184C131.414 8.23245 131.264 8.00957 131.164 7.76351C131.063 7.51745 131.014 7.25342 131.02 6.98773C131.018 6.72218 131.069 6.45892 131.17 6.21311C131.27 5.9673 131.419 5.74378 131.606 5.55542C131.794 5.36706 132.016 5.21758 132.262 5.11558C132.507 5.01357 132.771 4.96106 133.036 4.96106C133.302 4.96106 133.566 5.01357 133.811 5.11558C134.057 5.21758 134.279 5.36706 134.467 5.55542C134.654 5.74378 134.802 5.9673 134.903 6.21311C135.004 6.45892 135.055 6.72218 135.053 6.98773C135.051 7.38604 134.932 7.77497 134.71 8.10578C134.488 8.43658 134.173 8.69453 133.804 8.84731C133.436 9.00008 133.031 9.04087 132.64 8.96457C132.248 8.88827 131.888 8.69828 131.604 8.4184Z" fill="#FFA400"/>
</g>
<defs>
<clipPath id="clip0_3458_2500">
<rect width="146.667" height="40" fill="white"/>
</clipPath>
</defs>
</svg>
